<svg class="style-svg replaced-svg svg-replaced-1" fill="none" viewBox="0 0 978 619" height="70" width="90" xmlns="http://www.w3.org/2000/svg"><g clip-path="url(#clip0_10005_31238)" fill="#fff"><path d="M848.118 405.857c-6.045 4.75-13.74 7.604-22.113 7.604-19.395 0-35.175-15.276-35.175-34.048 0-18.773 15.78-34.048 35.175-34.048 8.373 0 16.068 2.861 22.113 7.603l7.462-7.459c-7.969-6.618-18.286-10.622-29.575-10.622-25.207 0-45.649 19.929-45.649 44.519s20.435 44.519 45.649 44.519c11.282 0 21.606-4.004 29.575-10.622l-7.462-7.46v.014zm-134.853 79.306a6.707 6.707 0 006.702-6.7c0-3.696-3.005-6.7-6.702-6.7a6.707 6.707 0 00-6.703 6.7c0 3.696 3.006 6.7 6.703 6.7zm5.237 12.709h-10.475v89.038h10.475v-89.038zM492.817 379.166c0-24.418-19.313-44.286-43.055-44.286-12.727 0-24.461 5.523-32.58 15.248V334.88h-10.474v121.128h10.474v-47.619c8.188 9.835 19.922 15.419 32.58 15.419 23.742 0 43.055-20.025 43.055-44.642zm-43.055 34.171c-17.567 0-31.875-14.399-32.58-32.781v-1.39c0-18.642 14.616-33.808 32.58-33.808s32.58 15.166 32.58 33.808c0 18.841-14.616 34.171-32.58 34.171zM531.99 586.8c12.658 0 24.392-5.585 32.58-15.419v15.522h10.474v-89.031H564.57v15.248c-8.12-9.718-19.854-15.248-32.58-15.248-23.742 0-43.055 19.867-43.055 44.286S508.248 586.8 531.99 586.8zm-32.581-44.642c0-18.642 14.617-33.808 32.581-33.808 17.964 0 32.58 15.166 32.58 33.808v1.389c-.699 18.383-15.014 32.782-32.58 32.782-17.567 0-32.581-15.33-32.581-34.171zm189.286 0c0-24.419-19.313-44.286-43.055-44.286-12.727 0-24.461 5.523-32.58 15.248v-15.248h-10.475V619h10.475v-47.619c8.188 9.834 19.922 15.419 32.58 15.419 23.742 0 43.055-20.025 43.055-44.642zm-43.055 34.171c-17.567 0-31.875-14.399-32.58-32.782v-1.389c0-18.642 14.616-33.808 32.58-33.808s32.58 15.166 32.58 33.808c0 18.841-14.616 34.171-32.58 34.171zm-74.355-241.435v52.581c0 14.495-11.501 25.992-26.165 26.164-14.479-.178-25.823-11.669-25.823-26.164v-52.581H509v52.581c0 20.1 16.198 36.457 36.113 36.457s36.647-16.357 36.647-36.457v-52.581h-10.475zm74.362-.014c-12.658 0-24.393 5.585-32.58 15.419v-41.535h-10.475v115.168h10.475v-15.378c8.119 9.718 19.853 15.248 32.58 15.248 23.742 0 43.054-19.868 43.054-44.287 0-24.418-19.312-44.642-43.054-44.642v.007zm32.58 44.642c0 18.643-14.616 33.809-32.58 33.809s-32.58-15.166-32.58-33.809v-1.389c.698-18.382 15.013-32.782 32.58-32.782s32.58 15.33 32.58 34.171zm76.134-57.351a6.707 6.707 0 006.703-6.7c0-3.695-3.006-6.7-6.703-6.7a6.708 6.708 0 00-6.702 6.7c0 3.696 3.006 6.7 6.702 6.7zm5.238 12.723h-10.474v89.038h10.474v-89.038zm125.87-12.723a6.707 6.707 0 006.703-6.7c0-3.695-3.006-6.7-6.703-6.7a6.708 6.708 0 00-6.702 6.7c0 3.696 3.006 6.7 6.702 6.7zm5.238 12.723h-10.475v89.038h10.475v-89.038zm-6.073 162.978a36.068 36.068 0 00-26.172 11.21v-11.21h-10.118v89.038h10.118v-52.739c.342-14.337 12.083-26.006 26.172-26.006s25.995 11.655 25.995 25.986v52.759h10.296v-52.759c0-20.005-16.28-36.279-36.291-36.279zm90.443 78.895l-1.041.287c-.992.274-2.683.596-5.086.596-4.218 0-6.011-2.669-6.011-8.931v-60.623h12.357v-10.224h-12.357v-29.901h-10.728v29.901h-12.425v10.224h12.425v60.938c0 6.686 1.205 11.052 3.765 13.714 2.383 2.724 6.039 4.162 10.564 4.162 3.402 0 6.408-.473 8.475-1.321l.575-.24-.52-8.582h.007zm-163.688-15.474c-5.717 9.451-16.164 15.323-27.302 15.323-17.32 0-31.594-13.845-32.881-31.693h70.609c2.889 0 5.149-2.101 5.149-4.784v-.78c-1.849-23.584-20.278-41.371-42.877-41.371-23.838 0-43.233 20.025-43.233 44.642 0 24.617 19.395 44.286 43.233 44.286 14.561 0 27.959-7.48 35.887-20.025l-8.585-5.591v-.007zm-27.302-53.019c15.356 0 28.52 11.094 31.683 26.534h-63.887c3.506-15.679 16.602-26.534 32.197-26.534h.007zM464.83 543.937s-2.718-2.114-5.655-3.353c-2.937-1.232-7.147-2.662-15.876-4.798-1.184-.287-2.334-.533-3.423-.814-5.839-1.458-10.447-3.429-13.698-5.851-3.225-2.786-4.43-5.092-4.293-8.227.144-3.305 2.129-6.515 5.586-9.047 3.944-2.916 9.694-4.366 16.198-4.086 7.38.322 12.994 4.011 19.053 8.432l.581.424 7.62-7.083c-.931-.869-1.102-1.013-3.642-2.758-5.983-4.052-13.336-8.329-23.181-8.76-8.571-.377-16.211 1.375-22.119 5.084-6.415 4.339-10.468 10.649-10.55 17.343-.061 4.982.966 9.656 5.949 14.454 5.956 5.735 15.219 8.753 23.701 10.395 7.271 1.41 13.994 4.093 17.369 6.899 4.039 3.702 5.47 6.399 5.476 10.252-.164 3.689-2.574 7.213-6.695 9.711-4.135 3.087-10.036 4.709-16.204 4.435-8.113-.356-16.506-3.887-24.961-10.505l-.582-.459-7.469 6.844.746.643c9.845 8.494 20.545 13.127 31.821 13.763 8.441.37 15.807-1.635 22.53-6.139 6.962-4.811 10.803-10.977 11.104-17.841.322-7.296-3.272-14.557-9.365-18.951l-.021-.007zm503.784-162.978s-2.718-2.114-5.654-3.353c-2.937-1.232-7.148-2.662-15.876-4.798-1.185-.287-2.335-.533-3.423-.814-5.84-1.458-10.447-3.429-13.699-5.851-3.225-2.786-4.43-5.092-4.293-8.227.144-3.305 2.129-6.515 5.587-9.047 3.943-2.916 9.694-4.366 16.197-4.086 7.38.322 12.994 4.011 19.053 8.432l.582.424 7.619-7.083c-.931-.869-1.102-1.013-3.642-2.758-5.983-4.052-13.336-8.329-23.18-8.76-8.572-.377-16.212 1.375-22.12 5.085-6.415 4.339-10.467 10.648-10.55 17.342-.061 4.982.966 9.656 5.95 14.454 5.956 5.735 15.218 8.753 23.701 10.395 7.27 1.41 13.993 4.093 17.368 6.899 4.039 3.703 5.47 6.399 5.477 10.252-.165 3.689-2.574 7.213-6.696 9.711-4.135 3.087-10.036 4.709-16.204 4.435-8.113-.356-16.506-3.887-24.961-10.505l-.582-.459-7.469 6.844.747.643c9.844 8.494 20.544 13.127 31.82 13.763 8.441.37 15.807-1.635 22.53-6.139 6.962-4.811 10.803-10.977 11.104-17.841.322-7.296-3.272-14.557-9.365-18.951l-.021-.007zm-250.112-72.174h-10.474v115.153h10.474V308.785zM582.684 0c-30.307 20.62-83.685 63.53-124.624 122.955-2.78 4.073-.384.61-14.055 20.984-3.451-5.215-12.131-13.722-12.131-13.722v.041c-1.356-1.307-2.8-2.587-4.491-3.798-8.222-5.92-20.662-9.513-30.732-9.513-8.736 0-23.016 1.122-30.574 4.256l16.026 25.151c8.133-2.231 17.978-1.731 28.247 6.146 3.231 2.471 6.216 5.188 9.037 7.994l.424.239s20.641 23.433 30.519 35.622c4.17-9.246 12.453-27.402 23.359-42.445 25.912-35.738 73.088-95.43 129.568-126.179L582.684 0zM180.365 188.977v-.526c0-39.79 28.206-72.469 68.008-72.469 44.28 0 66.687 34.787 66.687 74.843 0 2.895-.26 5.797-.52 8.959H212.261c3.423 22.66 19.504 35.307 40.062 35.307 15.548 0 26.631-5.797 37.701-16.596l18.71 16.596c-13.185 15.816-31.368 26.088-56.945 26.088-40.323 0-71.424-29.243-71.424-72.202zm103.067-10.272c-2.116-20.552-14.233-36.635-35.326-36.635-19.511 0-33.21 15.022-36.106 36.635h71.432zm267.028 10.272v-.526c0-39.79 28.206-72.469 67.995-72.469 44.279 0 66.7 34.787 66.7 74.843 0 2.895-.274 5.797-.534 8.959H582.349c3.43 22.66 19.511 35.307 40.062 35.307 15.555 0 26.631-5.797 37.695-16.596l18.717 16.596c-13.172 15.816-31.362 26.088-56.939 26.088-40.329 0-71.417-29.243-71.417-72.202m103.06-10.272c-2.116-20.552-14.24-36.635-35.326-36.635-19.504 0-33.217 15.022-36.112 36.635h71.438zm43.999-59.822h31.902v21.613c8.955-13.181 21.88-24.514 43.486-24.514 31.369 0 49.558 21.085 49.558 53.498v88.544h-31.895v-79.059c0-21.599-10.803-33.986-29.78-33.986s-31.369 12.914-31.369 34.52v78.532h-31.902V118.883zm136.55 69.841v-.534c0-46.113 31.362-72.201 64.579-72.201 22.934 0 37.427 11.6 47.442 24.507V65.659h31.91v192.359h-31.91v-23.194c-10.269 14.502-24.775 26.095-47.442 26.095-32.683 0-64.579-26.095-64.579-72.195zm112.549 0v-.534c0-26.868-18.971-44.532-40.323-44.532-21.353 0-40.07 16.863-40.07 44.532v.534c0 26.876 18.443 44.533 40.07 44.533 21.626 0 40.323-17.917 40.323-44.533zm-529.292-13.147v82.447h31.902v-44.416l-31.902-38.031zM53.844 80.675H21.942v38.222H0v26.766h21.942v73.886c0 30.557 16.615 40.843 40.076 40.843 11.857 0 20.812-2.634 28.733-7.117v-26.082c-6.333 3.162-12.652 4.743-19.778 4.743-10.81 0-17.13-5.01-17.13-17.397v-68.253h37.435v-27.403H53.844V80.675zm81.714 69.56v-31.352h-31.903v139.135h31.903v-52.964c0-36.888 19.504-55.079 47.442-55.079h1.842v-33.726c-24.509-1.061-40.59 13.174-49.284 33.979"/><path d="M536.796 149.523c-3.245-11.682-9.599-20.477-18.471-26.15-.041-.021-.068-.062-.103-.082h-.013c-1.178-.746-3.334-1.848-4.594-2.498-7.818 8.835-15.527 18.581-21.079 27.307 1.13.444 3.006 1.642 3.827 2.279.945.739 1.718 1.717 2.547 2.607.917.979 1.8 1.971 2.567 3.128 1.041 1.587 2.026 3.25 2.786 5.18.206.514.315 1.143.5 1.684 1.547 4.551 2.451 9.8 2.451 15.98v79.06h31.902v-88.805c0-7.173-.903-13.62-2.478-19.423.048-.11.116-.185.158-.274m-176.662-19.265l-7.393-11.368h-25.296v41.576a85.296 85.296 0 00-.473 8.76v88.805h32.368v-78.265c0-.288 0-4.161.007-8.664.863-6.632 2.964-11.95 6.024-16.097 2.328-2.717 5.286-4.791 6.443-5.564l-11.687-19.176.007-.007zM120.606 393.032h-12.289l.254-1.41c3.628-.404 4.032-.855 3.779-3.018-.254-2.067-.657-4.579-1.109-7.501h-10.577c-.856 1.608-2.568 4.531-3.731 6.796-1.561 2.97-.808 3.326 3.073 3.73l-.3 1.41H88.17l.349-1.41c3.224-.404 3.881-.705 6.346-4.832l15.465-26.889 1.664-.253c2.218 14.803 3.32 21.551 4.333 27.642.555 3.524.959 3.976 4.635 4.332l-.349 1.41-.007-.007zm-11.583-27.04h-.096c-2.567 4.681-5.142 9.267-7.202 13.092h9.215l-1.917-13.092zm40.295 22.112c-3.074 3.525-6.702 5.537-10.173 5.537s-5.689-2.669-5.689-7.453c0-4.182 1.712-8.958 5.135-12.086 2.368-2.217 5.641-3.778 8.009-3.778 2.218 0 3.882 1.157 3.93 2.313.048.958-.705 2.266-1.712 2.622-.451.198-.753.15-1.156-.302-1.157-1.409-2.267-2.162-3.827-2.162-3.827 0-6.141 6.344-6.141 12.284 0 3.675 1.41 5.544 3.724 5.544 2.67 0 5.641-2.265 7.154-3.826l.753 1.314-.007-.007zm23.427-9.923c0 5.235-2.622 10.621-7.051 13.441-1.814 1.109-3.93 2.012-6.196 2.012-4.785 0-6.75-3.826-6.75-7.857 0-6.946 3.731-11.935 8.113-14.098 1.608-.807 3.676-1.362 5.189-1.362 4.231 0 6.702 2.772 6.702 7.857l-.007.007zm-15.718 7.049c0 3.778 1.41 6.289 4.183 6.289 4.785 0 7.304-7.699 7.304-13.14 0-4.181-1.814-5.94-4.23-5.94-5.039 0-7.25 7.603-7.25 12.791h-.007zm51.831-14.906c1.609 0 3.224.753 1.657 7.2-.705 3.121-1.76 7.398-2.52 10.573-.301 1.308-.301 1.862.048 1.862.452 0 1.91-.753 3.779-2.717l.753 1.259c-2.567 3.422-5.942 5.133-7.4 5.133-1.26 0-1.965-1.211-.911-5.441.856-3.476 1.862-7.706 2.67-11.08.657-2.772.254-3.524-.602-3.524-1.609 0-5.84 2.819-9.27 8.356-.903 1.41-1.362 2.518-1.759 4.181-.452 1.965-1.061 4.483-1.458 6.55-1.308.151-2.622.602-3.629.958l-.349-.349c1.26-5.14 2.519-9.971 3.574-15.104.705-3.121.602-4.579-.555-4.579-1.663 0-5.696 3.018-9.016 8.357-.856 1.362-1.314 2.669-1.711 4.229-.452 1.964-1.062 4.428-1.459 6.495-1.307.198-2.67.602-3.628.958l-.301-.349c1.307-5.14 2.923-11.682 4.128-17.171.356-1.663.198-2.067-.199-2.067-.602 0-1.964 1.061-3.224 2.265l-.65-1.314c2.313-2.771 4.935-4.681 6.599-4.681 1.41 0 1.814 2.012.904 5.886l-.753 3.429c4.634-6.345 9.317-9.315 11.836-9.315 1.767 0 2.972 1.362 1.561 7.754l-.356 1.711c4.484-6.296 9.626-9.465 12.241-9.465zm16.321.609c1.41-.404 3.224-.602 4.58-.602 5.292 0 7.304 2.471 7.304 6.899 0 3.421-1.41 7.35-4.333 10.573-2.471 2.82-6.093 5.037-9.372 5.838-.808 0-1.965-.103-2.923-.506l-1.411 7.103c-.554 2.82-.349 3.326 2.116 3.525l1.41.15-.199 1.308-11.836.609.246-1.314c3.423-.603 3.779-1.006 4.429-4.079a3559.284 3559.284 0 005.642-26.383c-1.561.554-2.869 1.211-4.081 1.862l-.356-1.41c1.411-.958 3.177-1.814 4.888-2.519l.555-2.32c.91-1.109 2.574-2.265 3.731-2.922l.452.301-.856 3.88.014.007zm-3.93 18.732c.603.807 1.814 1.711 3.074 1.663 3.581 0 8.516-6.748 8.516-13.195 0-4.428-2.368-5.591-5.339-5.591-.856 0-1.767.15-2.773.403-1.006 4.983-2.417 11.683-3.478 16.72zm41.008-1.164c-2.472 3.319-5.593 5.133-7.004 5.133-1.41 0-2.012-1.156-1.109-5.742l.705-3.47c-1.862 3.066-4.532 5.592-6.045 6.796-1.608 1.314-3.525 2.416-5.189 2.416-1.759 0-3.224-2.163-3.224-6.241 0-4.736 2.163-9.972 5.593-13.093 2.622-2.415 6.243-3.976 9.618-3.976 2.575 0 4.888.753 5.847.856-.911 3.168-2.67 10.922-3.628 16.616-.254 1.41-.151 1.965.246 1.965.602 0 1.664-.657 3.478-2.519l.705 1.259h.007zm-9.119-4.181c1.109-1.41 2.417-3.929 2.923-6.043.507-1.91.959-3.723 1.109-4.935-.705-.356-2.369-.807-3.827-.807-5.942 0-8.715 7.651-8.715 14.201 0 2.012.555 3.326 1.561 3.326 1.561 0 3.779-1.561 6.956-5.742h-.007zm35.36 4.181c-2.67 3.525-5.744 5.133-7.202 5.133-1.363 0-2.061-1.211-1.109-5.338.903-3.572 1.759-7.152 2.519-10.32.808-3.272.602-4.38-.65-4.38-1.664 0-5.546 2.819-8.969 8.055-.91 1.362-1.314 2.669-1.711 4.229-.5 1.964-1.157 4.681-1.561 6.748-1.26.253-2.622.657-3.574 1.006l-.349-.349a611.736 611.736 0 004.128-17.219c.356-1.56.151-2.012-.253-2.012-.555 0-1.807 1.109-3.067 2.32l-.705-1.314c2.321-2.922 4.936-4.729 6.599-4.729 1.459 0 1.862 1.759.808 6.139l-.705 2.97c4.484-5.838 9.016-9.109 12.035-9.109 1.664 0 3.225 1.157 1.609 7.905-.65 2.771-1.609 6.652-2.369 9.82-.301 1.362-.301 1.965.048 1.965.452 0 1.91-.808 3.725-2.717l.759 1.211-.006-.014zm2.724-13.188c1.561-2.32 4.382-4.982 6.196-4.982s2.417 3.223 2.718 7.603c.356 4.333.554 8.761.76 11.984 2.266-3.374 7.297-10.519 7.25-14.201 0-1.006-.507-1.916-.76-2.47-.247-.603-.247-1.061.205-1.609.5-.657 1.506-1.307 2.314-1.307 1.157 0 1.862 1.109 1.862 2.772 0 1.41-.507 3.476-1.759 5.79-4.081 7.5-12.494 19.285-18.286 25.63l-5.237 1.362-.452-1.157c5.039-3.223 9.071-7.35 11.535-10.676-.047-4.031-.657-11.279-1.109-15.857-.301-3.073-.807-4.23-1.314-4.23-.555 0-1.91 1.157-3.122 2.669l-.808-1.307.007-.014zm53.844 2.868c0 5.235-2.622 10.621-7.051 13.441-1.815 1.109-3.93 2.012-6.196 2.012-4.785 0-6.75-3.826-6.75-7.857 0-6.946 3.731-11.935 8.112-14.098 1.609-.807 3.677-1.362 5.19-1.362 4.23 0 6.702 2.772 6.702 7.857l-.007.007zm-15.718 7.049c0 3.778 1.41 6.289 4.183 6.289 4.785 0 7.304-7.699 7.304-13.14 0-4.181-1.814-5.94-4.231-5.94-5.038 0-7.25 7.603-7.25 12.791h-.006zm24.33-14.297c.754-3.778 1.911-7.453 4.334-10.122 2.321-2.621 5.292-3.976 7.305-3.976 1.759 0 3.224 1.006 3.224 2.06 0 .76-.856 2.012-1.513 2.519-.404.301-.808.349-1.157 0-1.157-1.26-2.416-1.91-3.471-1.91-1.917 0-3.272 2.115-4.833 11.429h5.689l-.958 1.814c-.856.048-3.677.246-5.039.246-.959 5.544-1.513 8.76-2.622 14.708-1.712 8.91-3.574 12.387-6.346 15.254-2.218 2.416-4.635 3.32-5.847 3.32-1.862 0-3.224-.959-3.224-2.218 0-.855.705-2.162 1.561-2.772.349-.253.753-.253.958 0 1.006.856 2.013 1.711 3.272 1.711 2.869 0 3.725-3.524 5.443-13.543 1.212-6.851 2.013-11.484 2.821-16.467h-4.286l.048-.602 1.41-1.458h3.225l.006.007z"/></g><defs><clipPath id="clip0_10005_31238"><path fill="#fff" d="M0 0h978v619H0z"/></clipPath></defs></svg>